<svg width="80" height="80" viewBox="0 0 80 80" fill="none" xmlns="http://www.w3.org/2000/svg">
<circle cx="40" cy="40" r="40" fill="#EF7F1A"/>
<path d="M34.4086 27.9633C34.2633 28.1085 34.1797 28.3102 34.1797 28.5156C34.1797 28.721 34.2633 28.9227 34.4086 29.068C34.5538 29.2133 34.7556 29.2969 34.9609 29.2969C35.1663 29.2969 35.368 29.2133 35.5133 29.068C35.6586 28.9227 35.7422 28.721 35.7422 28.5156C35.7422 28.3102 35.6586 28.1085 35.5133 27.9633C35.368 27.818 35.1663 27.7344 34.9609 27.7344C34.7556 27.7344 34.5538 27.818 34.4086 27.9633Z" fill="white"/>
<path d="M59.2188 44.6875H56.2891V36.5234C56.2891 36.2476 56.1435 35.9921 55.9061 35.8514C55.6686 35.7104 55.3748 35.7056 55.1328 35.838L46.7969 40.4007V36.5234C46.7969 36.2476 46.6513 35.9921 46.4139 35.8514C46.1765 35.7104 45.8826 35.7056 45.6406 35.838L37.3047 40.4007V36.5234C37.3047 36.2476 37.1591 35.9921 36.9217 35.8514C36.6843 35.7104 36.3904 35.7056 36.1484 35.838L27.8125 40.4007V30.0732C27.8125 29.6451 28.1607 29.2969 28.5889 29.2969H31.8359C32.2675 29.2969 32.6172 28.9471 32.6172 28.5156C32.6172 28.0841 32.2675 27.7344 31.8359 27.7344H28.5889C27.2992 27.7344 26.25 28.7836 26.25 30.0732V30.0781H21.5625V25.8862C21.5625 23.5022 23.5022 21.5625 25.8865 21.5625C27.2589 21.5625 28.5199 22.193 29.3457 23.2919C29.6048 23.6368 30.0946 23.7064 30.4398 23.4473C30.7846 23.1882 30.8542 22.6984 30.5951 22.3535C30.4926 22.2168 30.3848 22.0856 30.2725 21.9598C30.9186 21.6986 31.6119 21.5625 32.3193 21.5625C34.0866 21.5625 35.7529 22.4261 36.7764 23.873C36.9284 24.0881 37.1698 24.2029 37.4149 24.2029C37.5708 24.2029 37.7283 24.1562 37.8653 24.0594C38.2175 23.8101 38.3011 23.3228 38.0518 22.9706C37.894 22.7472 37.7237 22.5351 37.5433 22.334H42.2217C43.7106 22.334 44.9219 23.5452 44.9219 25.0342C44.9219 26.5231 43.7106 27.7344 42.2217 27.7344H38.0859C37.6544 27.7344 37.3047 28.0841 37.3047 28.5156C37.3047 28.9471 37.6544 29.2969 38.0859 29.2969H42.2217C44.5721 29.2969 46.4844 27.3846 46.4844 25.0342C46.4844 22.6837 44.5721 20.7715 42.2217 20.7715H35.5566C35.5429 20.7715 35.5298 20.7727 35.5164 20.7736C34.5389 20.2725 33.4451 20 32.3193 20C31.1365 20 29.9832 20.2951 28.9551 20.8572C28.0466 20.3012 26.9934 20 25.8865 20C22.6407 20 20 22.6407 20 25.8862V59.2188C20 59.6503 20.3497 60 20.7812 60H59.2188C59.6503 60 60 59.6503 60 59.2188V45.4688C60 45.0372 59.6503 44.6875 59.2188 44.6875ZM54.7266 37.8415V44.6875H46.7969V42.1817L54.7266 37.8415ZM45.2344 37.8415V44.6875H37.3047V42.1817L45.2344 37.8415ZM26.25 33.8281H21.5625V31.6406H26.25V33.8281ZM21.5625 35.3906H26.25V58.4375H24.6875V53.7018C24.6875 53.2703 24.3378 52.9205 23.9062 52.9205C23.4747 52.9205 23.125 53.2703 23.125 53.7018V58.4375H21.5625V35.3906ZM27.8125 42.1817L35.7422 37.8415V44.6875H32.6562C32.2247 44.6875 31.875 45.0372 31.875 45.4688V58.4375H27.8125V42.1817ZM58.4375 58.4375H33.4375V46.25H58.4375V58.4375Z" fill="white"/>
<path d="M36.9531 55.3906H40.5469C40.9784 55.3906 41.3281 55.0409 41.3281 54.6094V50.8594C41.3281 50.4279 40.9784 50.0781 40.5469 50.0781H36.9531C36.5216 50.0781 36.1719 50.4279 36.1719 50.8594V54.6094C36.1719 55.0409 36.5216 55.3906 36.9531 55.3906ZM37.7344 51.6406H39.7656V53.8281H37.7344V51.6406Z" fill="white"/>
<path d="M44.1406 55.3906H47.7344C48.1659 55.3906 48.5156 55.0409 48.5156 54.6094V50.8594C48.5156 50.4279 48.1659 50.0781 47.7344 50.0781H44.1406C43.7091 50.0781 43.3594 50.4279 43.3594 50.8594V54.6094C43.3594 55.0409 43.7091 55.3906 44.1406 55.3906ZM44.9219 51.6406H46.9531V53.8281H44.9219V51.6406Z" fill="white"/>
<path d="M51.3281 55.3906H54.9219C55.3534 55.3906 55.7031 55.0409 55.7031 54.6094V50.8594C55.7031 50.4279 55.3534 50.0781 54.9219 50.0781H51.3281C50.8966 50.0781 50.5469 50.4279 50.5469 50.8594V54.6094C50.5469 55.0409 50.8966 55.3906 51.3281 55.3906ZM52.1094 51.6406H54.1406V53.8281H52.1094V51.6406Z" fill="white"/>
<path d="M23.9062 51.3538C24.1116 51.3538 24.3134 51.2711 24.4586 51.1249C24.6039 50.9796 24.6875 50.7788 24.6875 50.5725C24.6875 50.3671 24.6039 50.1657 24.4586 50.0204C24.3134 49.8749 24.1116 49.7913 23.9062 49.7913C23.7009 49.7913 23.4991 49.8749 23.3539 50.0204C23.2086 50.1657 23.125 50.3671 23.125 50.5725C23.125 50.7788 23.2086 50.9796 23.3539 51.1249C23.4991 51.2711 23.7 51.3538 23.9062 51.3538Z" fill="white"/>
</svg>
