<svg width="80" height="80" viewBox="0 0 80 80" fill="none" xmlns="http://www.w3.org/2000/svg">
<circle cx="40" cy="40" r="40" fill="#EF7F1A"/>
<path d="M54.1971 57.545V60H52.6839V57.545H52.437C52.4194 57.545 52.3982 57.5485 52.377 57.5485H28.6416C28.6134 57.552 28.5852 57.552 28.5569 57.552H28.5464H27.922V60H26.4088V57.552H25.5375V57.5485C24.6839 57.545 23.982 57.3757 23.4529 56.9242C22.9097 56.4621 22.6028 55.7637 22.5746 54.7372C22.5746 54.7266 22.5746 54.7125 22.5746 54.7019L22.5781 43.6966C21.8938 43.4991 21.2942 43.2451 20.7862 42.9242C20.0878 42.4832 19.5658 41.9189 19.2448 41.2134C18.1619 38.836 18.7086 36.836 19.989 35.4885C20.571 34.8748 21.3083 34.4056 22.1125 34.1058C22.9132 33.806 23.7809 33.6755 24.624 33.7425C25.2589 33.7919 25.8832 33.9471 26.4582 34.2187V26.6067C26.4582 23.4744 26.9273 21.8413 28.1337 20.9277C29.3118 20.0353 31.012 20 33.5869 20H47.0684C49.8691 20 51.5693 20.1093 52.691 21.1111C53.8127 22.1129 54.1407 23.8307 54.1407 27.0088V34.5079C54.9097 34.1411 55.7562 33.9718 56.5993 33.9788C57.4211 33.9859 58.236 34.1587 58.9696 34.4727C59.7139 34.7936 60.3841 35.2628 60.9097 35.8589C62.0596 37.1746 62.4758 39.0547 61.3612 41.2416C61.0225 41.9083 60.5076 42.4621 59.8303 42.903C59.3224 43.231 58.7262 43.4956 58.0419 43.6966V54.7125H58.0384V54.7302C58.0102 55.7601 57.7033 56.455 57.1601 56.9171C56.631 57.3651 55.9291 57.5379 55.0755 57.5414V57.545H54.1971ZM27.9679 35.358C28.4335 35.8871 28.8109 36.5573 29.0613 37.3721C29.1813 37.7601 29.2659 38.1834 29.3083 38.642C29.3506 39.0829 29.3506 39.5556 29.3047 40.067V42.0882H51.3047V40.0353C51.2624 39.5379 51.2483 39.0758 51.28 38.6526C51.3153 38.1693 51.407 37.7213 51.5728 37.3157C51.8444 36.6455 52.2042 36.0847 52.6275 35.6261V27.0088C52.6275 24.2928 52.4158 22.8854 51.6857 22.2328C50.9591 21.5838 49.5023 21.5132 47.0684 21.5132H33.5869C31.3224 21.5132 29.8338 21.5379 29.0402 22.1376C28.2677 22.7196 27.9679 24.0106 27.9679 26.6102V35.358ZM29.3047 43.6014V46.1446H51.3047V43.6014H29.3047ZM26.8003 36.3351C26.7121 36.2787 26.6345 36.2011 26.5781 36.1129C25.9926 35.5838 25.2624 35.3086 24.5111 35.2487C23.8797 35.1993 23.2342 35.2945 22.6381 35.5168C22.0455 35.739 21.5058 36.0811 21.0825 36.5291C20.2007 37.4603 19.8374 38.8713 20.6169 40.5891C20.8109 41.0123 21.1425 41.3616 21.5975 41.6508C22.0984 41.9683 22.7404 42.2081 23.4987 42.3774C23.8338 42.4515 24.0878 42.7548 24.0878 43.1146L24.0843 54.7055C24.0984 55.2593 24.2183 55.5979 24.43 55.7778C24.6557 55.9718 25.0367 56.0459 25.5411 56.0459V56.0423H27.2977C27.3259 56.0388 27.3541 56.0388 27.3823 56.0388H27.795L27.7986 40.0529C27.7986 40.0247 27.7986 40 27.8021 39.9718C27.8409 39.5414 27.8409 39.1464 27.8056 38.7866C27.7739 38.4339 27.7104 38.1129 27.6187 37.8201C27.4317 37.2063 27.1495 36.716 26.8003 36.3351ZM52.818 42.6102C52.8427 42.6843 52.8568 42.7619 52.8568 42.8466C52.8568 42.9277 52.8427 43.0088 52.818 43.0829V46.7337C52.8321 46.7866 52.8356 46.8466 52.8356 46.903C52.8356 46.9594 52.8285 47.0194 52.818 47.0723V56.0353H55.0719V56.0388C55.5728 56.0388 55.9538 55.9647 56.183 55.7707C56.3912 55.5944 56.5111 55.2628 56.5287 54.716H56.5252V43.1111C56.5252 42.7302 56.8074 42.4162 57.1707 42.3633C57.9079 42.194 58.5217 41.9506 59.0049 41.6367C59.4529 41.3439 59.7915 40.9841 60.0102 40.5573C60.7968 39.0159 60.5393 37.7284 59.7703 36.8536C59.4035 36.4339 58.9167 36.0988 58.37 35.8624C57.8127 35.6226 57.1989 35.4921 56.5852 35.485C55.1248 35.4744 53.6539 36.1869 52.9732 37.873C52.8709 38.127 52.8109 38.4233 52.7897 38.7548C52.7615 39.1287 52.7756 39.5309 52.8144 39.9647C52.818 39.9859 52.818 40.0106 52.818 40.0317H52.8215V42.6102H52.818ZM29.3012 56.0353H51.3047V47.6578H29.3012V56.0353Z" fill="white"/>
</svg>
