<svg width="80" height="80" viewBox="0 0 80 80" fill="none" xmlns="http://www.w3.org/2000/svg">
<circle cx="40" cy="40" r="40" fill="#EF7F1A"/>
<path d="M22.4568 36.8244C26.1282 36.8244 29.1044 33.8482 29.1044 30.1769C29.1044 26.5055 26.1282 23.5293 22.4568 23.5293C18.7855 23.5293 15.8092 26.5055 15.8092 30.1769C15.8092 33.8482 18.7855 36.8244 22.4568 36.8244Z" stroke="white" stroke-width="1.5" stroke-miterlimit="10" stroke-linecap="round" stroke-linejoin="round"/>
<path d="M40.9654 39.0203C45.8495 39.0203 49.8089 35.0609 49.8089 30.1768C49.8089 25.2927 45.8495 21.3333 40.9654 21.3333C36.0813 21.3333 32.1219 25.2927 32.1219 30.1768C32.1219 35.0609 36.0813 39.0203 40.9654 39.0203Z" stroke="white" stroke-width="1.5" stroke-miterlimit="10" stroke-linecap="round" stroke-linejoin="round"/>
<path d="M58.7271 37.0484C62.5222 37.0484 65.5987 33.9719 65.5987 30.1768C65.5987 26.3817 62.5222 23.3052 58.7271 23.3052C54.932 23.3052 51.8555 26.3817 51.8555 30.1768C51.8555 33.9719 54.932 37.0484 58.7271 37.0484Z" stroke="white" stroke-width="1.5" stroke-miterlimit="10" stroke-linecap="round" stroke-linejoin="round"/>
<path d="M20.1265 51.3296C18.7521 51.0756 17.1985 50.7022 15.5553 50.1793C14.2557 49.7611 13.0606 49.283 12.0149 48.8199C12.0149 47.3859 12.0149 45.9667 12 44.5326C12.0448 43.726 12.2988 41.1865 14.3005 38.886C16.108 36.8095 18.304 36.1373 19.1256 35.9282" stroke="white" stroke-width="1.5" stroke-miterlimit="10" stroke-linecap="round" stroke-linejoin="round"/>
<path d="M36.7827 37.9747C35.6772 38.1987 32.1667 39.0652 29.433 42.3217C27.2222 44.9658 26.6844 47.7742 26.535 48.9543C26.535 51.0158 26.535 53.0773 26.535 55.1388C29.0297 56.3787 34.0191 58.4252 40.6069 58.4252C47.1499 58.4103 52.1094 56.3787 54.6041 55.1388C54.6041 52.8084 54.6041 50.493 54.6041 48.1626C54.4099 46.9825 53.9767 45.2795 52.8862 43.5467C50.3915 39.5581 46.3283 38.2884 45.1332 37.9747" stroke="white" stroke-width="1.5" stroke-miterlimit="10" stroke-linecap="round" stroke-linejoin="round"/>
<path d="M31.9277 40.0661C31.5243 39.4536 30.8969 38.6619 29.9708 37.9448C28.223 36.5854 26.4005 36.212 25.4893 36.0925" stroke="white" stroke-width="1.5" stroke-miterlimit="10" stroke-linecap="round" stroke-linejoin="round"/>
<path d="M49.4653 39.9765C49.794 39.3939 50.4214 38.4378 51.5418 37.6311C53.1551 36.451 54.8133 36.2718 55.5154 36.2419" stroke="white" stroke-width="1.5" stroke-miterlimit="10" stroke-linecap="round" stroke-linejoin="round"/>
<path d="M62.2078 36.0925C62.9249 36.2269 65.3897 36.7946 67.3018 39.0652C68.9898 41.052 69.2736 43.2181 69.3334 43.9948C69.3334 45.5186 69.3334 47.0423 69.3334 48.566C68.5267 49.1934 67.242 50.0598 65.4644 50.6573C63.5821 51.2848 61.9389 51.3594 60.8932 51.3296" stroke="white" stroke-width="1.5" stroke-miterlimit="10" stroke-linecap="round" stroke-linejoin="round"/>
</svg>
