<svg width="80" height="80" viewBox="0 0 80 80" fill="none" xmlns="http://www.w3.org/2000/svg">
<circle cx="40" cy="40" r="40" fill="#EF7F1A"/>
<path d="M26.3088 37.2898C26.51 37.5472 26.7674 37.9494 26.8881 38.4723C27.0731 39.2446 26.8157 39.6469 26.7915 40.3709C26.7513 41.3684 27.1616 42.4545 27.8695 43.1866C28.8107 44.16 30.0496 44.2967 30.4599 44.3289C30.8139 44.3933 31.3368 44.5461 31.8114 44.9403C32.5113 45.5195 32.5194 46.1551 33.1629 46.9193C33.4445 47.2572 33.9272 47.6996 34.7397 48.0456C35.1017 48.1743 35.6085 48.2949 36.2038 48.2789C36.4854 48.2708 37.0727 48.2225 37.7243 47.941C38.1507 47.7559 38.1748 47.6514 38.577 47.5066C38.7621 47.4422 39.2286 47.2974 39.7837 47.3376C40.4595 47.3859 40.6606 47.6594 41.5133 47.9651C41.8512 48.0858 42.3419 48.2306 42.9936 48.303C43.3717 48.2949 43.9026 48.2225 44.4818 47.9732C44.7473 47.8605 45.5518 47.5066 46.131 46.694C46.5172 46.147 46.3563 46.0344 46.7746 45.5034C46.9435 45.2862 47.386 44.7392 48.11 44.4737C48.5766 44.2967 48.7134 44.4093 49.365 44.2404C49.8798 44.1036 50.274 43.9186 50.5395 43.7738C51.6014 43.09 51.9634 42.2855 52.0921 41.9477C52.4139 41.0627 52.3335 40.0491 52.3174 39.8882C52.2611 39.2688 52.1243 39.0677 52.2289 38.5608C52.3496 37.9816 52.6714 37.5472 52.8323 37.3541C53.0816 37.0565 53.2023 37.0404 53.4678 36.7588C53.7091 36.5094 54.0068 36.1152 54.224 35.4717C54.6101 33.2111 54.1838 32.2779 53.7011 31.8435C53.4276 31.5941 52.8403 31.2321 52.4622 30.4437C52.3898 30.2989 52.2611 30.0174 52.2048 29.6312C52.1082 28.9635 52.3174 28.6658 52.3254 27.9257C52.3254 27.6763 52.3013 27.3143 52.1887 26.8638C52.1645 26.7592 51.8508 25.5525 50.8452 24.732C49.4293 23.5816 48.0698 24.3539 47.024 23.1311C46.7505 22.8173 46.8872 22.8093 46.4448 22.1898C45.946 21.4819 45.415 20.7338 44.5623 20.3315C43.605 19.881 42.2856 19.8891 41.3042 20.3717C40.8135 20.6131 40.4434 20.951 39.7435 20.9831C39.3091 21.0073 38.9229 20.9027 38.7057 20.8383C38.0622 20.6533 37.8771 20.4361 37.4427 20.2511C36.3406 19.7684 35.1982 20.1143 34.9167 20.2028C34.1444 20.4361 33.6054 20.8625 33.2836 21.1601C33.1147 21.3532 32.8814 21.6428 32.6722 22.045C32.5033 22.3829 32.4872 22.5277 32.3665 22.753C32.0849 23.292 31.5781 23.5575 31.2 23.7425C30.2266 24.2332 29.8083 23.9597 28.9716 24.2895C28.5372 24.4585 27.9258 24.8205 27.3466 25.6652C27.1374 25.9709 26.8157 26.6144 26.7835 27.4109C26.7593 28.0142 26.9283 28.2958 26.8881 29.2451C26.872 29.6151 26.8639 29.8001 26.8157 30.0174C26.5582 31.1999 25.617 31.2643 25.0136 32.5675C24.9251 32.7606 24.6194 33.4524 24.6516 34.3374C24.6677 34.8764 24.8045 35.2947 24.8447 35.4073C24.8849 35.5119 24.9895 35.8095 25.2067 36.1555C25.5526 36.6864 25.971 37.0484 26.3088 37.2898Z" stroke="white" stroke-miterlimit="10" stroke-linecap="round" stroke-linejoin="round"/>
<path d="M39.4861 43.4118C44.5023 43.4118 48.5686 39.3454 48.5686 34.3293C48.5686 29.3132 44.5023 25.2468 39.4861 25.2468C34.47 25.2468 30.4037 29.3132 30.4037 34.3293C30.4037 39.3454 34.47 43.4118 39.4861 43.4118Z" stroke="white" stroke-miterlimit="10" stroke-linecap="round" stroke-linejoin="round"/>
<path d="M28.7544 43.8462L24 56.8384L29.5509 54.6985L32.4228 60L36.9037 48.1984" stroke="white" stroke-miterlimit="10" stroke-linecap="round" stroke-linejoin="round"/>
<path d="M42.3179 48.1903L46.6379 59.7989L49.5903 54.6985L54.932 56.7177L50.1052 43.9749" stroke="white" stroke-miterlimit="10" stroke-linecap="round" stroke-linejoin="round"/>
<path d="M37.9013 32.0285C36.9762 32.1733 36.051 32.3101 35.1259 32.4549C34.8443 32.5595 34.6754 32.8089 34.6915 33.0663C34.7076 33.2915 34.8765 33.4364 34.9087 33.4685C35.5523 34.0799 36.1958 34.6913 36.8394 35.3027C36.6946 36.1716 36.5579 37.0404 36.4131 37.9092C36.405 37.9333 36.3004 38.1908 36.4372 38.3999C36.5739 38.6091 36.8796 38.6976 37.1532 38.5689C37.9496 38.1425 38.746 37.7161 39.5344 37.2898L41.8432 38.4723C42.0604 38.6332 42.3501 38.6413 42.5592 38.4884C42.7362 38.3597 42.8247 38.1345 42.7925 37.9173C42.6477 37.0404 42.5029 36.1555 42.3581 35.2786C43.0258 34.627 43.6935 33.9673 44.3612 33.3157C44.3854 33.2835 44.5141 33.1226 44.4899 32.9134C44.4658 32.6962 44.2808 32.5032 44.0314 32.4469C43.1223 32.3262 42.2133 32.2055 41.3042 32.0848C40.91 31.2643 40.5239 30.4518 40.1297 29.6312C40.0251 29.414 39.8079 29.2853 39.5746 29.2933C39.3494 29.3014 39.1483 29.4381 39.0517 29.6473C38.6817 30.4437 38.2955 31.2401 37.9013 32.0285Z" stroke="white" stroke-miterlimit="10" stroke-linecap="round" stroke-linejoin="round"/>
</svg>
